<?xml version="1.0" standalone="no"?>
<!DOCTYPE svg PUBLIC "-//W3C//DTD SVG 20010904//EN"
 "http://www.w3.org/TR/2001/REC-SVG-20010904/DTD/svg10.dtd">
<svg version="1.0" xmlns="http://www.w3.org/2000/svg"
 width="40px" height="40px" viewBox="0 0 512.000000 512.000000"
 preserveAspectRatio="xMidYMid meet">

<g transform="translate(0.000000,512.000000) scale(0.100000,-0.100000)"
fill="#FFC8DD" stroke="none">
<path d="M1281 5040 c-116 -64 -207 -162 -269 -288 -28 -58 -36 -90 -40 -148
-7 -109 24 -175 111 -237 17 -11 14 -15 -27 -44 -87 -61 -113 -161 -99 -388 4
-77 7 -159 5 -181 l-3 -42 -57 -7 c-96 -12 -313 -71 -392 -108 -41 -19 -102
-54 -135 -78 -33 -24 -72 -52 -86 -61 -17 -11 -29 -29 -32 -50 -3 -18 -16 -63
-30 -99 -39 -102 -48 -223 -41 -553 5 -254 9 -304 29 -396 59 -263 60 -278 61
-1025 1 -668 2 -692 21 -752 42 -127 112 -206 234 -262 67 -31 331 -97 599
-150 1049 -204 2091 -181 3160 71 253 59 319 86 399 163 154 147 193 357 157
850 -9 121 -16 281 -16 355 0 125 2 141 31 220 73 204 93 463 68 895 -7 126
-12 320 -11 429 1 180 -1 203 -19 238 -48 95 -153 176 -292 226 -108 39 -377
102 -521 123 -109 15 -101 -5 -101 256 0 220 -1 230 -24 276 -14 30 -38 58
-63 75 l-40 26 35 30 c107 94 111 265 12 464 -51 101 -135 202 -169 202 -62 0
-223 -134 -297 -246 -118 -181 -109 -352 23 -449 18 -14 20 -18 8 -23 -8 -3
-31 -21 -51 -41 -56 -56 -69 -113 -69 -308 0 -152 -1 -164 -17 -159 -17 4
-243 19 -323 21 -19 1 -76 2 -127 3 l-91 2 -4 148 c-3 132 -5 151 -26 188 -13
22 -41 52 -63 66 l-38 25 38 31 c55 44 81 103 81 183 0 86 -20 152 -86 278
-30 57 -54 109 -54 117 0 25 -51 74 -77 74 -75 0 -260 -153 -332 -275 -94
-157 -95 -280 -3 -374 l47 -48 -46 -44 c-60 -58 -74 -109 -72 -256 l1 -112
-52 -5 c-28 -3 -103 -8 -166 -11 -63 -3 -164 -10 -223 -16 -60 -6 -112 -8
-115 -4 -4 4 -7 96 -7 204 l0 197 -30 49 c-18 29 -45 56 -68 68 l-38 19 33 23
c44 30 86 109 94 177 9 78 -18 190 -71 296 -46 92 -135 202 -163 202 -9 0 -41
-14 -71 -30z m103 -180 c46 -87 73 -172 79 -248 4 -54 1 -70 -22 -114 -30 -60
-61 -86 -117 -98 -83 -19 -160 13 -202 85 -20 35 -22 51 -19 116 5 107 53 206
144 300 l67 70 18 -23 c10 -13 33 -52 52 -88z m2386 5 c108 -195 107 -376 -3
-439 -68 -39 -113 -41 -176 -9 -79 40 -95 67 -99 163 -4 76 -2 83 38 167 31
63 61 107 108 155 l65 67 16 -22 c10 -12 32 -49 51 -82z m-1230 -16 c0 -4 16
-35 35 -67 43 -74 85 -202 85 -262 0 -128 -72 -212 -181 -212 -82 1 -149 46
-175 119 -40 113 17 273 144 405 53 54 57 57 74 41 10 -9 18 -20 18 -24z
m-1226 -530 c54 -13 111 -59 135 -107 37 -74 44 -136 38 -321 -3 -97 -8 -185
-11 -196 -2 -11 -5 -48 -5 -82 -1 -52 -5 -67 -28 -95 -15 -18 -20 -27 -10 -19
10 8 19 12 21 10 2 -2 6 -48 10 -101 l6 -96 -57 -22 c-74 -28 -187 -24 -252
10 l-43 21 23 25 c12 13 19 24 14 24 -4 0 13 16 39 35 25 20 46 38 46 41 0 6
-75 -35 -115 -63 -11 -7 -22 -13 -25 -13 -10 0 -6 254 4 269 6 9 5 12 -1 8
-15 -10 -22 46 -29 238 -9 234 12 345 81 419 27 29 83 34 159 15z m2441 -25
c52 -27 91 -84 111 -164 13 -52 16 -99 12 -239 l-5 -174 -34 -29 c-29 -25 -30
-27 -6 -12 l29 17 -5 -74 c-8 -104 -8 -185 -1 -247 l6 -52 -43 -19 c-24 -10
-63 -21 -87 -25 l-43 -6 18 27 18 28 -38 -23 c-46 -27 -79 -28 -133 -3 -58 27
-61 37 -23 79 l34 35 -37 -22 c-21 -12 -42 -20 -48 -16 -19 12 -12 100 11 129
15 19 16 24 5 20 -13 -5 -16 10 -16 113 -1 65 -3 134 -5 153 -2 19 -7 89 -11
155 -10 180 11 280 75 348 25 27 29 29 101 25 51 -2 88 -10 115 -24z m-1194
-92 c105 -55 141 -184 122 -436 -8 -109 -14 -141 -29 -159 -17 -19 -17 -20 -1
-8 17 13 17 10 11 -70 -6 -79 -9 -86 -43 -123 l-36 -38 33 17 c19 9 35 15 37
13 2 -2 5 -37 6 -78 l3 -75 -35 -17 c-49 -23 -109 -33 -109 -19 0 9 -5 9 -21
0 -24 -12 -88 -8 -132 10 l-29 11 74 82 c66 74 69 79 33 56 -43 -27 -141 -78
-150 -78 -11 0 -5 127 8 139 6 8 7 11 1 8 -8 -5 -15 46 -24 170 l-13 176 49
44 49 45 -47 -25 c-46 -24 -47 -25 -53 -6 -19 60 24 289 63 334 55 65 142 75
233 27z m334 -411 c-6 -4 -31 -21 -57 -36 l-48 -27 0 36 0 36 57 0 c33 0 53
-4 48 -9z m-735 -9 c0 -5 -456 -274 -542 -319 -5 -2 -8 5 -8 15 0 14 59 59
217 166 l217 146 58 0 c32 0 58 -3 58 -8z m1000 4 c0 -5 -345 -206 -354 -206
-3 0 -6 9 -6 20 0 14 35 43 127 105 120 80 131 85 180 85 29 0 53 -2 53 -4z
m-1301 -10 c-13 -12 -249 -146 -258 -146 -6 0 -11 11 -11 25 0 36 108 107 175
116 65 8 99 10 94 5z m1480 -5 c10 -6 -5 -19 -55 -48 -381 -221 -457 -263
-439 -246 14 14 467 303 474 303 3 0 12 -4 20 -9z m900 -131 c21 -5 11 -14
-80 -65 -57 -32 -119 -68 -137 -78 l-33 -20 3 39 c3 36 9 43 78 91 79 55 85
56 169 33z m-889 -24 c0 -26 -7 -39 -27 -54 -58 -40 -556 -322 -561 -318 -3 3
1 13 9 23 15 18 559 382 572 383 4 0 7 -15 7 -34z m-2524 17 c-16 -16 -291
-171 -296 -166 -3 2 20 28 51 56 31 29 58 58 60 64 2 6 38 21 79 31 80 22 118
27 106 15z m3579 -32 c18 -7 18 -8 -5 -23 -38 -24 -401 -233 -430 -248 l-25
-12 20 20 c20 21 406 273 415 271 3 0 14 -4 25 -8z m-3465 -26 c-7 -8 -18 -15
-24 -15 -6 0 -2 7 8 15 25 19 32 19 16 0z m3595 -24 c-15 -14 -131 -76 -120
-64 15 16 108 73 120 73 6 0 6 -3 0 -9z m-2387 -35 c-3 -3 -336 -195 -353
-204 -41 -21 33 30 178 124 118 75 173 106 175 96 2 -7 2 -15 0 -16z m2467
-22 c-25 -20 -75 -46 -75 -40 0 5 82 56 90 56 3 -1 -4 -8 -15 -16z m-1265 -48
c0 -3 -55 -37 -180 -109 -63 -36 -16 1 70 57 75 48 110 65 110 52z m1388 -31
c-3 -3 -649 -375 -663 -383 -47 -24 57 47 319 217 292 190 311 200 328 184 10
-9 17 -17 16 -18z m-3783 5 c-3 -5 -12 -10 -18 -10 -7 0 -6 4 3 10 19 12 23
12 15 0z m1193 -52 c-3 -7 -60 -46 -129 -86 -230 -135 -238 -134 -27 3 147 96
163 104 156 83z m-1488 -52 c0 -9 -332 -248 -337 -243 -3 3 -1 18 4 34 8 22
42 46 169 120 166 97 164 96 164 89z m-285 -46 c-9 -15 -45 -32 -45 -22 0 5
10 14 23 20 29 14 29 14 22 2z m4433 -42 c-2 -18 -38 -43 -153 -110 -148 -86
-184 -103 -154 -72 20 20 291 203 302 203 5 1 7 -9 5 -21z m-4003 3 c-6 -5
-118 -84 -250 -175 -201 -139 -241 -163 -243 -146 -2 11 1 27 6 37 8 14 475
292 492 293 2 0 0 -4 -5 -9z m490 -21 c-3 -5 -18 -10 -33 -9 l-27 1 25 8 c35
11 42 11 35 0z m2225 2 c0 -4 -26 -22 -57 -39 -32 -18 -82 -46 -110 -63 -84
-48 -62 -26 44 45 92 61 123 76 123 57z m-2561 -60 c-70 -54 -152 -103 -167
-100 -11 2 19 25 78 60 95 57 134 74 89 40z m1571 -47 c0 -2 -10 -9 -22 -15
-22 -11 -22 -10 -4 4 21 17 26 19 26 11z m-670 -10 c0 -2 -61 -45 -136 -95
-97 -66 -142 -90 -160 -88 -20 2 8 22 133 95 170 99 163 95 163 88z m2930 -9
c0 -13 -197 -136 -217 -136 -6 0 205 147 215 149 1 1 2 -5 2 -13z m-2510 -40
c0 -2 -62 -44 -138 -95 -124 -82 -172 -105 -172 -83 0 5 297 182 308 182 1 0
2 -2 2 -4z m-1587 -64 c3 -4 -83 -67 -191 -140 l-197 -133 -3 32 c-2 17 2 38
10 45 23 22 342 203 360 203 9 1 19 -2 21 -7z m4085 -87 c-12 -11 -453 -267
-508 -295 -52 -26 3 14 255 188 l260 180 3 -30 c2 -17 -2 -36 -10 -43z m-3813
-15 c-537 -347 -651 -417 -658 -404 -5 8 -7 19 -5 24 3 11 667 398 683 399 6
0 -3 -8 -20 -19z m195 -34 c-8 -7 -139 -92 -290 -188 -151 -97 -331 -211 -400
-256 -122 -78 -140 -83 -140 -42 0 9 87 65 217 140 120 69 307 178 418 242
110 64 202 117 205 118 2 0 -2 -6 -10 -14z m310 -10 c0 -2 -63 -45 -140 -96
l-141 -93 -31 15 -31 14 139 82 c94 55 149 81 172 82 17 0 32 -2 32 -4z m179
-30 c-4 -4 -355 -227 -375 -239 -7 -4 -14 0 -17 7 -4 11 49 46 186 125 106 61
196 111 201 111 5 0 7 -2 5 -4z m234 -16 c7 0 -113 -84 -267 -185 -153 -102
-282 -185 -286 -185 -4 0 -11 15 -17 34 l-11 35 122 69 c66 39 188 109 271
156 82 48 156 84 163 81 8 -3 19 -5 25 -5z m777 -33 c0 -11 -429 -287 -445
-287 -30 0 -15 10 216 155 197 123 229 141 229 132z m2140 -16 c0 -5 -7 -12
-16 -15 -14 -5 -15 -4 -4 9 14 17 20 19 20 6z m-1984 -38 c-4 -5 -116 -78
-249 -164 -180 -116 -245 -154 -255 -146 -8 6 -9 14 -4 19 10 10 504 297 511
298 2 0 1 -3 -3 -7z m-929 -69 c-3 -3 -126 -82 -274 -176 -205 -129 -269 -165
-271 -153 -2 9 -2 18 0 19 7 7 543 316 547 316 2 0 2 -3 -2 -6z m1408 -3 c-6
-5 -215 -143 -465 -305 l-455 -296 -3 36 c-2 20 -2 37 0 39 6 6 923 534 928
535 2 0 0 -4 -5 -9z m440 0 c-6 -5 -106 -72 -224 -151 -200 -133 -214 -141
-230 -125 -9 10 -12 19 -6 22 6 2 109 62 230 132 199 117 257 148 230 122z
m1073 -27 c-2 -9 -28 -30 -58 -46 l-55 -30 50 46 c54 49 68 56 63 30z m-3686
-30 c77 -74 102 -177 102 -431 1 -105 -1 -194 -4 -197 -18 -18 -440 97 -585
159 l-40 17 49 19 c95 36 132 88 190 271 44 141 54 155 132 184 58 21 119 12
156 -22z m2827 -87 c-28 -23 -562 -388 -564 -385 -2 2 -5 16 -7 32 -3 29 4 33
277 192 154 90 284 163 289 163 5 1 7 -1 5 -2z m357 -15 c-9 -15 -86 -65 -91
-60 -3 3 16 19 42 37 51 33 57 36 49 23z m508 -21 c-5 -4 -27 -18 -49 -30
l-40 -23 45 42 c25 24 46 37 48 30 2 -6 0 -15 -4 -19z m-394 -51 c-61 -56 -95
-71 -95 -42 0 11 138 101 155 101 3 0 -24 -26 -60 -59z m-1215 30 c-3 -5 -12
-10 -18 -10 -7 0 -6 4 3 10 19 12 23 12 15 0z m-1450 -9 c-32 -29 -401 -249
-403 -241 -2 6 -2 13 0 15 6 6 403 235 408 235 2 0 0 -4 -5 -9z m1860 0 c-24
-21 -256 -171 -266 -171 -29 0 9 29 131 101 131 76 154 88 135 70z m-1453 -38
c67 -71 72 -87 79 -303 4 -107 10 -205 14 -218 l8 -23 -124 7 c-68 4 -159 9
-203 13 l-78 6 -5 180 c-3 100 -1 191 5 204 9 25 222 168 252 170 9 1 32 -16
52 -36z m983 -52 c50 -23 68 -43 97 -106 19 -43 22 -70 24 -187 1 -75 5 -145
8 -156 7 -21 9 -21 -313 -38 -120 -7 -124 -6 -116 12 26 63 37 144 31 237 -5
84 -3 105 12 140 44 98 160 143 257 98z m1024 -15 c54 -28 95 -76 116 -137 16
-44 20 -126 7 -146 -10 -15 -324 -93 -378 -93 -11 0 -14 24 -14 118 0 64 3
128 7 140 6 24 173 141 201 142 7 0 34 -11 61 -24z m639 -17 c-30 -20 -41 -9
-17 17 20 22 25 23 27 9 2 -10 -2 -21 -10 -26z m-2408 26 c0 -2 -10 -9 -22
-15 -22 -11 -22 -10 -4 4 21 17 26 19 26 11z m2045 -60 c-54 -47 -65 -53 -65
-31 0 14 84 74 105 75 5 1 -13 -19 -40 -44z m-2770 -14 c-21 -19 -320 -199
-324 -195 -9 8 16 25 170 114 151 88 173 99 154 81z m-1165 -46 c-7 -8 -20
-15 -28 -15 -13 0 -12 3 4 15 25 19 40 19 24 0z m4303 -75 c-4 -4 -35 -21 -68
-39 l-60 -33 65 66 c63 64 65 66 68 40 2 -14 0 -30 -5 -34z m-363 0 c-35 -31
-50 -37 -50 -21 0 10 59 49 75 50 6 0 -6 -13 -25 -29z m-917 -65 c-108 -72
-133 -85 -133 -67 0 8 218 139 235 141 5 1 -41 -33 -102 -74z m-1813 42 c0
-17 -14 -31 -55 -54 -30 -18 -55 -29 -55 -26 0 6 101 101 108 103 1 0 2 -10 2
-23z m-1240 -46 c0 -5 -7 -11 -15 -15 -15 -5 -20 5 -8 17 9 10 23 9 23 -2z
m4025 -61 c-48 -48 -71 -66 -77 -57 -19 29 -6 47 65 86 39 22 74 41 77 41 2 0
-27 -31 -65 -70z m-749 24 c-30 -21 -44 -16 -17 7 13 11 27 17 30 13 3 -3 -3
-12 -13 -20z m-2351 -69 c-38 -35 -70 -63 -72 -61 -1 1 1 14 5 29 5 20 24 38
67 62 33 19 62 34 65 34 3 0 -26 -29 -65 -64z m3395 10 c0 -8 -15 -22 -32 -31
l-33 -16 29 31 c34 35 36 36 36 16z m-4085 -3 c-6 -5 -28 -19 -50 -32 l-40
-23 29 31 c17 18 39 32 50 32 12 0 16 -4 11 -8z m1730 0 c-6 -4 -22 -18 -37
-31 -20 -17 -28 -20 -28 -10 0 8 12 22 28 31 27 18 55 25 37 10z m-717 -35 c3
-16 -74 -64 -86 -53 -8 9 60 77 73 73 5 -2 11 -11 13 -20z m1018 -4 c-6 -18
-44 -48 -52 -40 -3 2 7 19 22 36 28 33 40 35 30 4z m768 6 c-10 -12 -36 -35
-56 -51 -35 -28 -38 -28 -38 -9 0 14 16 30 53 51 62 36 66 36 41 9z m-932 -46
c-37 -45 -84 -71 -136 -76 -45 -4 -19 22 72 74 53 31 99 54 101 53 2 -2 -15
-25 -37 -51z m-1653 27 c20 -5 7 -16 -95 -74 -225 -130 -221 -129 -99 -12 117
113 109 109 194 86z m3374 -37 c3 -16 2 -31 -1 -35 -4 -3 -117 -70 -252 -148
-135 -78 -248 -144 -252 -147 -5 -2 -8 -2 -8 1 0 7 490 356 500 356 4 0 10
-12 13 -27z m-234 13 c-2 -2 -119 -70 -259 -151 -140 -80 -248 -140 -240 -132
8 8 67 50 130 94 63 44 144 100 180 125 41 29 84 49 115 56 58 11 80 14 74 8z
m-2921 -21 c3 -3 -119 -76 -233 -140 -60 -34 -49 -21 73 78 83 69 95 76 125
70 17 -3 33 -7 35 -8z m3382 -40 c-13 -14 -28 -25 -34 -25 -6 0 3 11 19 25 39
31 45 32 15 0z m-3118 -47 c-6 -7 -25 -22 -44 -32 -39 -23 -32 -13 14 20 38
26 45 29 30 12z m1738 -2 c0 -4 -153 -94 -175 -103 -10 -4 3 6 88 68 45 32 87
49 87 35z m190 -16 c0 -4 -37 -29 -82 -55 -46 -26 -99 -57 -118 -68 -57 -34
-25 -7 83 69 94 66 117 77 117 54z m-2860 -65 c-61 -62 -86 -71 -78 -29 2 14
118 93 138 94 2 0 -25 -29 -60 -65z m1629 61 c-19 -16 -291 -167 -295 -164 -2
3 44 42 103 86 97 73 113 81 152 82 24 0 42 -2 40 -4z m231 -14 c0 -6 -188
-119 -320 -191 -62 -34 -52 -25 106 93 116 87 145 104 177 105 20 1 37 -2 37
-7z m1954 -103 c-75 -44 -138 -78 -140 -77 -1 2 52 42 119 90 100 70 125 84
140 76 16 -8 -3 -22 -119 -89z m-1434 87 c0 -2 -26 -19 -57 -36 -32 -18 -68
-40 -80 -48 -13 -8 -23 -12 -23 -8 0 9 133 96 147 96 7 0 13 -2 13 -4z m-275
-35 c-8 -8 -238 -142 -425 -248 -60 -34 -51 -26 135 120 134 104 165 124 187
120 14 -3 34 0 45 6 22 13 71 15 58 2z m878 3 c4 -4 -24 -25 -61 -46 -128 -75
-133 -75 -26 2 73 52 77 54 87 44z m-1973 -19 c0 -8 -82 -65 -94 -65 -6 0 11
16 38 35 51 36 56 39 56 30z m3220 -29 c-18 -16 -119 -74 -105 -59 19 20 98
73 109 73 5 0 4 -6 -4 -14z m-4085 -35 c-38 -35 -159 -131 -165 -131 -11 0
-23 34 -13 38 4 1 46 25 93 52 84 49 103 58 85 41z m3380 -50 c-6 -4 -154
-110 -330 -236 -176 -125 -327 -235 -335 -245 -12 -14 -36 -19 -118 -22 -56
-3 -100 -3 -97 0 6 7 879 511 885 512 2 0 0 -4 -5 -9z m-440 -70 c-6 -5 -147
-106 -313 -225 l-304 -217 -75 3 -76 3 384 222 c211 122 386 222 389 223 2 0
0 -4 -5 -9z m-2955 -45 c0 -5 -75 -56 -84 -56 -15 0 7 21 42 40 41 21 42 22
42 16z m416 -4 c-3 -5 -56 -48 -119 -96 -97 -73 -119 -86 -141 -80 -14 3 -26
9 -26 13 0 5 278 170 288 171 2 0 1 -4 -2 -8z m969 -11 c-6 -4 -94 -74 -197
-155 -169 -132 -190 -146 -225 -145 -106 3 -103 6 167 162 244 140 276 158
255 138z m-1245 -25 c0 -7 -118 -86 -129 -86 -25 0 -7 17 57 52 71 39 72 40
72 34z m517 -111 c-95 -71 -134 -95 -157 -95 -16 0 -30 3 -30 8 0 8 288 180
304 181 5 1 -48 -42 -117 -94z m3153 80 c0 -2 -31 -31 -69 -63 -53 -46 -85
-65 -146 -86 -43 -14 -80 -24 -82 -22 -3 2 284 173 295 176 1 0 2 -2 2 -5z
m-2810 -9 c0 -2 -61 -49 -135 -105 -128 -96 -136 -100 -170 -93 -36 7 -35 7
132 104 176 102 173 100 173 94z m3105 -409 c0 -329 -2 -397 -14 -411 -20 -23
-251 -139 -366 -183 -365 -140 -802 -224 -1314 -253 -737 -41 -1596 60 -2300
271 -163 49 -196 65 -245 120 -75 82 -98 184 -85 374 5 61 11 188 15 283 5
115 11 172 18 172 6 0 29 -9 51 -18 22 -10 61 -24 87 -31 26 -8 53 -20 59 -27
6 -8 23 -14 38 -14 42 0 105 -20 119 -38 8 -11 29 -16 68 -17 41 0 59 -5 69
-18 8 -11 25 -17 51 -16 44 2 122 -17 142 -34 8 -6 27 -10 42 -9 15 1 59 -5
96 -14 101 -22 96 -21 269 -49 764 -120 1561 -107 2255 36 52 11 105 17 118
14 12 -3 37 2 54 11 55 28 327 96 359 89 22 -5 45 3 101 33 40 22 120 56 177
76 57 20 107 38 109 41 25 25 28 -10 27 -388z m-1700 364 c-6 -4 -95 -68 -199
-140 -179 -125 -191 -132 -232 -129 -44 3 -43 3 194 140 228 132 257 148 237
129z m1055 -15 c0 -3 -39 -33 -87 -68 -49 -34 -97 -72 -108 -84 -13 -14 -42
-25 -80 -32 -33 -5 -61 -9 -62 -8 -2 1 328 194 335 196 1 0 2 -2 2 -4z m-3068
-28 c-15 -19 -72 -51 -72 -41 0 4 17 18 38 29 45 27 47 27 34 12z m1683 -7
c-6 -5 -75 -55 -155 -110 -115 -80 -152 -101 -179 -101 -19 0 -31 3 -28 7 8 7
360 212 367 213 2 0 0 -4 -5 -9z m-310 -50 c-6 -5 -56 -41 -112 -80 -90 -63
-144 -86 -143 -63 1 6 247 151 260 152 2 0 0 -4 -5 -9z m-439 -9 c-11 -19
-147 -103 -161 -100 -9 2 22 26 72 55 95 56 97 57 89 45z m134 -47 c0 -10
-109 -77 -120 -73 -6 2 18 20 52 40 67 40 68 41 68 33z m1499 -52 c-20 -26
-32 -33 -54 -33 -15 1 -9 7 20 25 48 30 52 30 34 8z"/>
</g>
</svg>
