<?xml version="1.0" encoding="UTF-8"?>
<svg version="1.1" xmlns="http://www.w3.org/2000/svg" width="500" height="500">
<path d="M0 0 C165 0 330 0 500 0 C500 165 500 330 500 500 C335 500 170 500 0 500 C0 335 0 170 0 0 Z " fill="#FEFEFE" transform="translate(0,0)"/>
<path d="M0 0 C3 1 3 1 4.16796875 2.75 C6.61944188 8.16014759 8.02980407 13.03671597 7 19 C6.34 19.99 5.68 20.98 5 22 C6.4540625 22.7734375 6.4540625 22.7734375 7.9375 23.5625 C11 26 11 26 11.9375 29.625 C12 33 12 33 11 35 C11.92232422 35.14695312 11.92232422 35.14695312 12.86328125 35.296875 C19.38999206 36.50436855 19.38999206 36.50436855 22 38.625 C23.20245788 41.48083746 23.42060626 44.05935674 23.6796875 47.12890625 C23.86780148 49.17300185 23.86780148 49.17300185 25.625 50.9375 C27.5912644 53.8868966 27.10418894 56.14643877 26.8125 59.5859375 C26 62 26 62 23.57373047 64.65600586 C20.67576058 68.06227777 19.79151932 71.58543424 19.0078125 75.91796875 C18.69205575 77.43438018 18.37562973 78.95065238 18.05859375 80.46679688 C17.58521749 82.83490964 17.12180771 85.20431534 16.67138672 87.5769043 C16.2262473 89.88424996 15.74434894 92.18155184 15.2578125 94.48046875 C15.13463654 95.18987106 15.01146057 95.89927338 14.884552 96.63017273 C14.44970703 98.63354492 14.44970703 98.63354492 13 102 C5.0401931 106.56138854 -3.15017537 106.21143937 -12.0625 106.25 C-13.22716797 106.270625 -14.39183594 106.29125 -15.59179688 106.3125 C-31.35096184 106.38273583 -31.35096184 106.38273583 -38 103 C-40.09690475 100.21336504 -40.47379706 97.39862318 -41 94 C-41.45964826 91.90380191 -41.92482962 89.80881207 -42.39453125 87.71484375 C-43.1123975 84.31536143 -43.81687273 80.91523078 -44.48632812 77.50585938 C-45.85596821 71.13276444 -47.35590809 66.56055603 -51.74462891 61.66137695 C-53 60 -53 60 -53.5625 56.25 C-53 53 -53 53 -51.5234375 51.11328125 C-49.31039991 48.0434009 -49.20476061 45.02489432 -48.72265625 41.33984375 C-47.79732615 38.34377495 -46.6945671 37.53420397 -44 36 C-40.25 35.3125 -40.25 35.3125 -37 35 C-37.226875 33.9275 -37.45375 32.855 -37.6875 31.75 C-38 28 -38 28 -37 25.625 C-35 24 -35 24 -31.5 23.6875 C-29.7675 23.3471875 -29.7675 23.3471875 -28 23 C-26.30096474 19.67480584 -26.30096474 19.67480584 -25 16 C-19.60069523 10.99576631 -15.31352073 10.60797471 -8.1640625 9.79296875 C-4.57247354 8.89285448 -3.25097359 7.891801 -1 5 C-0.20318682 2.35815459 -0.20318682 2.35815459 0 0 Z " fill="#FFCDE0" transform="translate(263,153)"/>
<path d="M0 0 C1.18803223 -0.01260864 2.37606445 -0.02521729 3.60009766 -0.03820801 C4.87933105 -0.03011108 6.15856445 -0.02201416 7.4765625 -0.01367188 C8.79317871 -0.01749878 10.10979492 -0.02132568 11.46630859 -0.02526855 C14.25051684 -0.03115911 17.03421099 -0.02261601 19.81835938 -0.00390625 C23.38305583 0.01888437 26.94654768 0.00575872 30.51119995 -0.01819611 C33.9164168 -0.03614518 37.32131144 -0.02356965 40.7265625 -0.01367188 C42.6454126 -0.02581726 42.6454126 -0.02581726 44.60302734 -0.03820801 C46.38507568 -0.01929504 46.38507568 -0.01929504 48.203125 0 C49.24807129 0.00318237 50.29301758 0.00636475 51.36962891 0.00964355 C54.81194289 0.64965555 56.02414824 1.73831371 58.1015625 4.51757812 C58.1015625 6.85091146 58.1015625 9.18424479 58.1015625 11.51757812 C58.7821875 12.34257812 59.4628125 13.16757813 60.1640625 14.01757812 C62.1015625 16.51757812 62.1015625 16.51757812 62.0390625 20.14257812 C60.81879972 24.53552414 60.81879972 24.53552414 58.1015625 26.51757812 C52.67770854 27.38633395 47.65853749 27.29606562 42.7265625 24.83007812 C41.8603125 24.06695312 40.9940625 23.30382812 40.1015625 22.51757812 C38.97783739 21.59934904 37.8528381 20.68267705 36.7265625 19.76757812 C35.8603125 19.02507812 34.9940625 18.28257812 34.1015625 17.51757812 C34.00875 18.44570312 34.00875 18.44570312 33.9140625 19.39257812 C33.1015625 21.51757812 33.1015625 21.51757812 31.1015625 22.76757812 C25.83871944 24.08328889 21.07635691 24.36391859 16.0390625 22.20507812 C15.3996875 21.64820313 14.7603125 21.09132812 14.1015625 20.51757812 C14.1015625 19.52757812 14.1015625 18.53757813 14.1015625 17.51757812 C13.1115625 17.51757812 12.1215625 17.51757812 11.1015625 17.51757812 C10.8746875 18.09507812 10.6478125 18.67257813 10.4140625 19.26757812 C8.19107382 23.07841587 5.24367258 25.13687477 1.1015625 26.51757812 C-8.52649986 27.54653135 -8.52649986 27.54653135 -12.6484375 24.45507812 C-14.27308041 20.63716729 -14.00096791 18.48668759 -12.8984375 14.51757812 C-12.3828125 14.02257812 -11.8671875 13.52757812 -11.3359375 13.01757812 C-9.49567316 11.45007951 -9.49567316 11.45007951 -9.9609375 8.08007812 C-9.8984375 4.51757812 -9.8984375 4.51757812 -8.26318359 2.32727051 C-5.29602041 0.0565605 -3.70986285 0.01129835 0 0 Z " fill="#FFFEFE" transform="translate(225.8984375,190.482421875)"/>
<path d="M0 0 C0.99 0.33 1.98 0.66 3 1 C5.14413223 1.09504628 7.2912677 1.12987226 9.4375 1.125 C10.57058594 1.12757813 11.70367187 1.13015625 12.87109375 1.1328125 C15.47841263 1.02213979 17.51275935 0.67775709 20 0 C19.73857293 5.48121611 19.47192014 10.96214371 19.20043945 16.44287109 C19.10883516 18.30705894 19.01865466 20.17131733 18.92993164 22.03564453 C18.80209371 24.71667009 18.66912346 27.39739958 18.53515625 30.078125 C18.47727684 31.32677338 18.47727684 31.32677338 18.41822815 32.60064697 C18.37826218 33.38115417 18.3382962 34.16166138 18.29711914 34.96582031 C18.26380997 35.64976868 18.23050079 36.33371704 18.19618225 37.03839111 C18 39 18 39 17 43 C12.38 43 7.76 43 3 43 C1.58514176 28.67284326 0.55897499 14.38625095 0 0 Z " fill="#FFFEFE" transform="translate(240,214)"/>
<path d="M0 0 C0.33 0 0.66 0 1 0 C2.28382014 14.69222884 3.34308755 29.24723527 3 44 C1.22844346 43.88570603 -0.54226229 43.75816963 -2.3125 43.625 C-3.29863281 43.55539063 -4.28476563 43.48578125 -5.30078125 43.4140625 C-8 43 -8 43 -11 41 C-11.9831543 38.28198242 -11.9831543 38.28198242 -12.82421875 34.85546875 C-13.13037109 33.62119141 -13.43652344 32.38691406 -13.75195312 31.11523438 C-13.90543213 30.47030029 -14.05891113 29.82536621 -14.21704102 29.16088867 C-14.68403792 27.20202204 -15.16950687 25.24847468 -15.65820312 23.29492188 C-18.20691907 12.8555118 -18.20691907 12.8555118 -18 8 C-16.80503906 7.76216797 -16.80503906 7.76216797 -15.5859375 7.51953125 C-9.02525973 6.07490512 -4.76702933 4.76702933 0 0 Z " fill="#FFFDFE" transform="translate(237,212)"/>
<path d="M0 0 C0.47630859 0.34643555 0.95261719 0.69287109 1.44335938 1.04980469 C2.07048828 1.50258789 2.69761719 1.95537109 3.34375 2.421875 C3.96443359 2.87143555 4.58511719 3.32099609 5.22460938 3.78417969 C9.55595826 6.75036746 13.84726626 7.39379603 19 8 C18.13346207 14.81278094 16.82891089 21.52670256 15.4375 28.25 C15.22287109 29.43335938 15.00824219 30.61671875 14.78710938 31.8359375 C13.01726404 40.16797077 13.01726404 40.16797077 10.21142578 42.46289062 C6.23943956 44.07778053 2.26907117 44.32018034 -2 44 C-2.45710881 29.29633335 -1.1095177 14.64946968 0 0 Z " fill="#FFFEFE" transform="translate(262,212)"/>
<path d="M0 0 C0.79148438 -0.02578125 1.58296875 -0.0515625 2.3984375 -0.078125 C4.625 0.25 4.625 0.25 6.44921875 1.48828125 C7.625 3.25 7.625 3.25 7.55859375 5.37109375 C7.39488281 6.13550781 7.23117188 6.89992188 7.0625 7.6875 C6.64570701 10.06434777 6.64570701 10.06434777 6.625 12.25 C7.264375 12.889375 7.90375 13.52875 8.5625 14.1875 C11.08369709 16.70869709 11.03363645 17.69992627 11.1875 21.1875 C11.04216763 25.12891393 10.77094647 26.06180587 8.25 29.3125 C4.13397879 32.35051565 1.76013991 32.52509678 -3.375 32.25 C-5.375 30.25 -5.375 30.25 -5.61791992 27.37670898 C-5.61381104 26.17860596 -5.60970215 24.98050293 -5.60546875 23.74609375 C-5.60353516 22.44865234 -5.60160156 21.15121094 -5.59960938 19.81445312 C-5.59340576 19.13777588 -5.58720215 18.46109863 -5.58081055 17.76391602 C-5.56254052 15.69209529 -5.56030095 13.62072103 -5.56054688 11.54882812 C-5.50934018 0.10697748 -5.50934018 0.10697748 0 0 Z " fill="#AC896D" transform="translate(165.375,270.75)"/>
<path d="M0 0 C13.86 0 27.72 0 42 0 C43.38125018 2.76250036 43.19079306 4.94731099 43 8 C40.33929795 10.66070205 38.34520322 10.24916545 34.72607422 10.27789307 C33.43854248 10.27182037 33.43854248 10.27182037 32.125 10.265625 C30.80459717 10.26849518 30.80459717 10.26849518 29.45751953 10.27142334 C27.59472366 10.27278552 25.73191831 10.26908682 23.86914062 10.26074219 C21.01150264 10.25004307 18.15449334 10.26063632 15.296875 10.2734375 C13.48958194 10.27211591 11.68228927 10.26955353 9.875 10.265625 C9.01664551 10.26967346 8.15829102 10.27372192 7.27392578 10.27789307 C1.22991745 10.22991745 1.22991745 10.22991745 -1 8 C-1.33333333 2.66666667 -1.33333333 2.66666667 0 0 Z " fill="#FFFCFD" transform="translate(229,179)"/>
<path d="M0 0 C1.92871094 0.17163086 1.92871094 0.17163086 4 1 C5.18847656 2.85766602 5.18847656 2.85766602 6.140625 5.25390625 C6.48867188 6.10791016 6.83671875 6.96191406 7.1953125 7.84179688 C7.54335938 8.73962891 7.89140625 9.63746094 8.25 10.5625 C8.79527344 11.91504883 8.79527344 11.91504883 9.3515625 13.29492188 C10.24810303 15.52447663 11.12584655 17.76157308 12 20 C12.33 13.73 12.66 7.46 13 1 C14.32 0.67 15.64 0.34 17 0 C17 10.23 17 20.46 17 31 C15.68 31.33 14.36 31.66 13 32 C10.03 26.39 7.06 20.78 4 15 C3.67 20.28 3.34 25.56 3 31 C1.68 31 0.36 31 -1 31 C-1.02465622 26.74585377 -1.04283899 22.49174502 -1.05493164 18.23754883 C-1.05997101 16.78929927 -1.06680253 15.34105483 -1.07543945 13.89282227 C-1.08752247 11.81525412 -1.09323211 9.73775303 -1.09765625 7.66015625 C-1.10289307 6.40855713 -1.10812988 5.15695801 -1.11352539 3.86743164 C-1 1 -1 1 0 0 Z " fill="#AB876B" transform="translate(264,271)"/>
<path d="M0 0 C0.66 0 1.32 0 2 0 C3.28282363 2.56564725 3.20391953 4.51033069 3.25 7.375 C3.27578125 8.33148438 3.3015625 9.28796875 3.328125 10.2734375 C2.9361644 13.53044346 2.30979766 14.6892895 0 17 C-2.72729492 17.45410156 -2.72729492 17.45410156 -5.98046875 17.390625 C-7.14384766 17.37773437 -8.30722656 17.36484375 -9.50585938 17.3515625 C-10.72080078 17.31804687 -11.93574219 17.28453125 -13.1875 17.25 C-14.41404297 17.23195312 -15.64058594 17.21390625 -16.90429688 17.1953125 C-19.93697759 17.14811124 -22.96810087 17.08227677 -26 17 C-23.94053937 10.11632338 -23.94053937 10.11632338 -20.109375 7.79296875 C-17.25401034 6.71956315 -14.461508 6.43536976 -11.4375 6.0625 C-6.03349727 5.47705798 -6.03349727 5.47705798 -1.8125 2.375 C-1.214375 1.59125 -0.61625 0.8075 0 0 Z " fill="#FFFEFE" transform="translate(264,159)"/>
<path d="M0 0 C2.1484375 1.50390625 2.1484375 1.50390625 4 4 C4.2906124 6.89449949 4.38186045 9.37949935 4.25 12.25 C4.23195312 12.99507813 4.21390625 13.74015625 4.1953125 14.5078125 C4.14835649 16.33909701 4.07661652 18.16971649 4 20 C2.68 19.67 1.36 19.34 0 19 C0 17.02 0 15.04 0 13 C-0.66 13 -1.32 13 -2 13 C-2.20625 13.639375 -2.4125 14.27875 -2.625 14.9375 C-4 17 -4 17 -7 17.875 C-7.99 17.91625 -8.98 17.9575 -10 18 C-12.47035712 15.52964288 -12.35042281 14.6039993 -12.4375 11.1875 C-12.37356879 7.16564567 -12.19581297 6.25249568 -9.625 2.9375 C-6.15922425 0.37942742 -4.31829259 -0.51408245 0 0 Z " fill="#AC886C" transform="translate(196,283)"/>
<path d="M0 0 C0.99 0.33 1.98 0.66 3 1 C3 6.28 3 11.56 3 17 C4.65 15.35 6.3 13.7 8 12 C10.3125 11.1875 10.3125 11.1875 12 11 C11.855625 11.70125 11.71125 12.4025 11.5625 13.125 C11.376875 14.07375 11.19125 15.0225 11 16 C10.773125 17.010625 10.54625 18.02125 10.3125 19.0625 C9.96470802 22.33174461 10.47120399 23.21219551 12 26 C12.125 28.75 12.125 28.75 12 31 C10.125 30.75 10.125 30.75 8 30 C6.27898465 27.41847698 6 26.15081975 6 23 C5.34 23 4.68 23 4 23 C4 25.31 4 27.62 4 30 C2.0625 30.5625 2.0625 30.5625 0 31 C-1.85714057 29.14285943 -1.13048681 26.07492951 -1.1328125 23.59375 C-1.13410156 22.29308594 -1.13539063 20.99242187 -1.13671875 19.65234375 C-1.13462402 18.97155762 -1.1325293 18.29077148 -1.13037109 17.58935547 C-1.1250224 15.50871485 -1.1303168 13.42829011 -1.13671875 11.34765625 C-1.13542969 10.04699219 -1.13414062 8.74632812 -1.1328125 7.40625 C-1.13168457 6.20291016 -1.13055664 4.99957031 -1.12939453 3.75976562 C-1 1 -1 1 0 0 Z " fill="#AF8C71" transform="translate(332,272)"/>
<path d="M0 0 C0.99 0.33 1.98 0.66 3 1 C3 6.28 3 11.56 3 17 C3.66 17 4.32 17 5 17 C5.37125 16.071875 5.37125 16.071875 5.75 15.125 C7.20628639 12.64931313 8.37812506 12.04874998 11 11 C11.6875 12.8125 11.6875 12.8125 12 15 C11.505 15.474375 11.01 15.94875 10.5 16.4375 C10.005 16.953125 9.51 17.46875 9 18 C9.20911999 20.71855981 9.81607439 22.64296794 11.0625 25.0625 C12 27 12 27 12 31 C10.1875 30.875 10.1875 30.875 8 30 C6.25 26.9375 6.25 26.9375 5 24 C4.67 24 4.34 24 4 24 C3.67 26.31 3.34 28.62 3 31 C1.68 30.67 0.36 30.34 -1 30 C-1.02465746 25.8882744 -1.04283959 21.77657722 -1.05493164 17.66479492 C-1.0599708 16.26504772 -1.06680216 14.8653058 -1.07543945 13.46557617 C-1.0875232 11.45754223 -1.09269807 9.44947043 -1.09765625 7.44140625 C-1.10289307 6.23170166 -1.10812988 5.02199707 -1.11352539 3.77563477 C-1 1 -1 1 0 0 Z " fill="#AB876B" transform="translate(209,272)"/>
<path d="M0 0 C2.48560236 0.9038554 3.45342892 1.64513671 5.0625 3.75 C5.4609375 6.52734375 5.4609375 6.52734375 5.4375 9.6875 C5.44523437 10.72777344 5.45296875 11.76804687 5.4609375 12.83984375 C5.01818175 16.07369705 4.35775319 17.4601474 2.0625 19.75 C-0.875 20.3125 -0.875 20.3125 -3.9375 19.75 C-6.56981951 17.60258145 -7.72312464 15.9596895 -8.3203125 12.58984375 C-8.52618342 8.4792878 -8.28169176 6.30070682 -6.0625 2.75 C-2.76196809 -0.35638298 -2.76196809 -0.35638298 0 0 Z " fill="#AD8A6F" transform="translate(317.9375,283.25)"/>
<path d="M0 0 C2.48560236 0.9038554 3.45342892 1.64513671 5.0625 3.75 C5.4609375 6.52734375 5.4609375 6.52734375 5.4375 9.6875 C5.44523437 10.72777344 5.45296875 11.76804687 5.4609375 12.83984375 C5.01818175 16.07369705 4.35775319 17.4601474 2.0625 19.75 C-0.875 20.3125 -0.875 20.3125 -3.9375 19.75 C-6.56981951 17.60258145 -7.72312464 15.9596895 -8.3203125 12.58984375 C-8.52618342 8.4792878 -8.28169176 6.30070682 -6.0625 2.75 C-2.76196809 -0.35638298 -2.76196809 -0.35638298 0 0 Z " fill="#AD8A6F" transform="translate(296.9375,283.25)"/>
<path d="M0 0 C2.9375 0.5 2.9375 0.5 4.8125 1.5625 C6.51946395 4.50227124 6.12549766 7.17870803 5.9375 10.5 C3.22870665 11.85439668 0.92816732 11.56501451 -2.0625 11.5 C-1.7325 12.49 -1.4025 13.48 -1.0625 14.5 C1.86629371 13.87240135 4.29845629 12.91377341 6.9375 11.5 C7.2675 12.49 7.5975 13.48 7.9375 14.5 C6.4375 17.1875 6.4375 17.1875 3.9375 19.5 C0.375 20.0625 0.375 20.0625 -3.0625 19.5 C-6.18790725 16.47877299 -6.97789172 13.4137694 -7.375 9.125 C-6.92223081 3.87287741 -5.41969101 0.88484751 0 0 Z " fill="#AF8C71" transform="translate(236.0625,283.5)"/>
<path d="M0 0 C0.99 0 1.98 0 3 0 C3.05422947 1.4370809 3.09289723 2.87475462 3.125 4.3125 C3.14820313 5.11300781 3.17140625 5.91351563 3.1953125 6.73828125 C3 9 3 9 1 12 C2.4540625 12.7734375 2.4540625 12.7734375 3.9375 13.5625 C7 16 7 16 7.875 19.75 C7.91625 20.8225 7.9575 21.895 8 23 C7.01 23 6.02 23 5 23 C4.505 19.535 4.505 19.535 4 16 C-7.22 16 -18.44 16 -30 16 C-29.67 15.01 -29.34 14.02 -29 13 C-28.22285645 12.98541748 -27.44571289 12.97083496 -26.64501953 12.95581055 C-23.13783312 12.88153022 -19.6316199 12.78480411 -16.125 12.6875 C-14.90167969 12.66494141 -13.67835938 12.64238281 -12.41796875 12.61914062 C-10.66806641 12.5659668 -10.66806641 12.5659668 -8.8828125 12.51171875 C-7.80402832 12.48553467 -6.72524414 12.45935059 -5.61376953 12.43237305 C-4.75122559 12.28968994 -3.88868164 12.14700684 -3 12 C-0.97649676 8.96474514 -0.67875982 7.80573798 -0.375 4.3125 C-0.30023438 3.50425781 -0.22546875 2.69601563 -0.1484375 1.86328125 C-0.09945313 1.24839844 -0.05046875 0.63351563 0 0 Z " fill="#FFD6E5" transform="translate(267,163)"/>
<path d="M0 0 C1.32 0 2.64 0 4 0 C3.58669586 5.99291003 2.68096635 9.25036599 -1 14 C-4.95893787 11.91056057 -7.625729 9.83536085 -10 6 C-9.75 3.1875 -9.75 3.1875 -9 1 C-8.401875 1.165 -7.80375 1.33 -7.1875 1.5 C-4.88655664 2.1114124 -4.88655664 2.1114124 -2 2 C-1.34 1.34 -0.68 0.68 0 0 Z " fill="#FFC9DE" transform="translate(212,147)"/>
<path d="M0 0 C1.32 0 2.64 0 4 0 C8 6.625 8 6.625 8 10 C5.24921116 10.91692961 3.64051087 11.10886083 0.8125 11.0625 C-1.0746875 11.0315625 -1.0746875 11.0315625 -3 11 C-3.33 9.68 -3.66 8.36 -4 7 C-2.68 6.67 -1.36 6.34 0 6 C0 4.02 0 2.04 0 0 Z " fill="#FFCCDF" transform="translate(194,159)"/>
<path d="M0 0 C0.61875 0.165 1.2375 0.33 1.875 0.5 C5.16673441 1.27452574 7.7222975 0.69004263 11 0 C10.48964169 4.3890815 9.47785723 7.33708062 7 11 C2.79609368 9.49860488 1.10889262 6.82724957 -1 3 C-0.67 2.01 -0.34 1.02 0 0 Z " fill="#FFCCDF" transform="translate(206,167)"/>
<path d="M0 0 C0.78375 0.04125 1.5675 0.0825 2.375 0.125 C3.88162097 3.13824195 3.55270373 5.80786377 3.375 9.125 C1.375 11.125 1.375 11.125 -1.75 11.25 C-3.173125 11.188125 -3.173125 11.188125 -4.625 11.125 C-4.67899736 9.66707116 -4.71779177 8.20857288 -4.75 6.75 C-4.78480469 5.53183594 -4.78480469 5.53183594 -4.8203125 4.2890625 C-4.51136441 0.86591762 -3.34090594 0.15909076 0 0 Z " fill="#FBFAF9" transform="translate(168.625,286.875)"/>
<path d="M0 0 C-0.43820891 4.55737263 -0.85041169 7.57653445 -4 11 C-7.35498935 9.61172854 -9.15050455 8.14414226 -11 5 C-11 3.68 -11 2.36 -11 1 C-10.071875 1.20625 -9.14375 1.4125 -8.1875 1.625 C-4.33959484 2.07769472 -3.53541174 0 0 0 Z " fill="#FFCADE" transform="translate(229,156)"/>
<path d="M0 0 C0.99 0 1.98 0 3 0 C3 3.3 3 6.6 3 10 C1.68 10 0.36 10 -1 10 C-2.38125018 7.23749964 -2.19079306 5.05268901 -2 2 C-1.34 1.34 -0.68 0.68 0 0 Z " fill="#FAF8F6" transform="translate(316,288)"/>
<path d="M0 0 C0.99 0 1.98 0 3 0 C3 3.3 3 6.6 3 10 C1.68 10 0.36 10 -1 10 C-2.38125018 7.23749964 -2.19079306 5.05268901 -2 2 C-1.34 1.34 -0.68 0.68 0 0 Z " fill="#FAF8F6" transform="translate(295,288)"/>
<path d="M0 0 C0.99 0.33 1.98 0.66 3 1 C-0.625 7.875 -0.625 7.875 -4 9 C-4.25 6.75 -4.25 6.75 -4 4 C-2 1.6875 -2 1.6875 0 0 Z " fill="#F5F1EE" transform="translate(192,287)"/>
<path d="M0 0 C1.32 0 2.64 0 4 0 C4.25 2.3125 4.25 2.3125 4 5 C2 6.8125 2 6.8125 0 8 C0 5.36 0 2.72 0 0 Z " fill="#F0EAE5" transform="translate(164,275)"/>
<path d="M0 0 C1.32 0 2.64 0 4 0 C4 1.32 4 2.64 4 4 C2.35 4 0.7 4 -1 4 C-0.67 2.68 -0.34 1.36 0 0 Z " fill="#F3EEE9" transform="translate(234,288)"/>
<path d="M0 0 C0.99 0 1.98 0 3 0 C3 2.97 3 5.94 3 9 C2.01 8.34 1.02 7.68 0 7 C-0.1875 3.375 -0.1875 3.375 0 0 Z " fill="#FFDBE9" transform="translate(267,163)"/>
</svg>
